<svg id="kity_svg_6" xmlns="http://www.w3.org/2000/svg" xmlns:xlink="http://www.w3.org/1999/xlink" version="1.1" width="566" height="644" style="background: rgb(251, 251, 251); visibility: visible;" viewBox="0 0 566 644"><defs id="kity_defs_7"><linearGradient id="kity_linearGradient_17" x1="0" y1="0" x2="0" y2="1"><stop id="kity_stop_18" offset="0" stop-color="rgb(255, 255, 255)"></stop><stop id="kity_stop_19" offset="1" stop-color="rgb(204, 204, 204)"></stop></linearGradient><marker id="kity_marker_2" orient="auto" refX="6" refY="0" viewBox="-7 -7 14 14" markerWidth="7" markerHeight="7" markerUnits="userSpaceOnUse"><path id="kity_path_3" fill="rgb(115, 161, 191)" stroke="none" d="M6,0A6,6,0,1,1,-6,0A6,6,0,1,1,6,0"></path></marker></defs><g id="kity_g_8"><g id="minder1" text-rendering="optimize-speed"><g id="minder_connect_group1"><path id="kity_path_31" fill="none" stroke="rgb(115, 161, 191)" stroke-width="1" d="M58.00001226365566,339.5000102967024A53.5,271,0,0,1,111.50001226365566,68.50001029670238"></path><path id="kity_path_33" fill="none" stroke="rgb(115, 161, 191)" stroke-width="1" d="M182.50001226365566,68.50001029670238C190.50001226365566,68.50001029670238,190.50001226365566,29.500010296702385,198.50001226365566,29.500010296702385"></path><path id="kity_path_35" fill="none" stroke="rgb(115, 161, 191)" stroke-width="1" d="M182.50001226365566,68.50001029670238C190.50001226365566,68.50001029670238,190.50001226365566,55.500010296702385,198.50001226365566,55.500010296702385"></path><path id="kity_path_37" fill="none" stroke="rgb(115, 161, 191)" stroke-width="1" d="M182.50001226365566,68.50001029670238C190.50001226365566,68.50001029670238,190.50001226365566,81.50001029670238,198.50001226365566,81.50001029670238"></path><path id="kity_path_39" fill="none" stroke="rgb(115, 161, 191)" stroke-width="1" d="M182.50001226365566,68.50001029670238C190.50001226365566,68.50001029670238,190.50001226365566,107.50001029670238,198.50001226365566,107.50001029670238"></path><path id="kity_path_41" fill="none" stroke="rgb(115, 161, 191)" stroke-width="1" d="M58.00001226365566,339.5000102967024A53.5,42,0,0,1,111.50001226365566,297.5000102967024"></path><path id="kity_path_43" fill="none" stroke="rgb(115, 161, 191)" stroke-width="1" d="M234.50001226365566,297.5000102967024C242.50001226365566,297.5000102967024,242.50001226365566,141.50001029670238,250.50001226365566,141.50001029670238"></path><path id="kity_path_45" fill="none" stroke="rgb(115, 161, 191)" stroke-width="1" d="M325.50001226365566,141.50001029670238C333.50001226365566,141.50001029670238,333.50001226365566,141.50001029670238,341.50001226365566,141.50001029670238"></path><path id="kity_path_47" fill="none" stroke="rgb(115, 161, 191)" stroke-width="1" d="M234.50001226365566,297.5000102967024C242.50001226365566,297.5000102967024,242.50001226365566,167.50001029670238,250.50001226365566,167.50001029670238"></path><path id="kity_path_49" fill="none" stroke="rgb(115, 161, 191)" stroke-width="1" d="M313.50001226365566,167.50001029670238C321.50001226365566,167.50001029670238,321.50001226365566,167.50001029670238,329.50001226365566,167.50001029670238"></path><path id="kity_path_51" fill="none" stroke="rgb(115, 161, 191)" stroke-width="1" d="M234.50001226365566,297.5000102967024C242.50001226365566,297.5000102967024,242.50001226365566,193.50001029670238,250.50001226365566,193.50001029670238"></path><path id="kity_path_53" fill="none" stroke="rgb(115, 161, 191)" stroke-width="1" d="M319.50001226365566,193.50001029670238C327.50001226365566,193.50001029670238,327.50001226365566,193.50001029670238,335.50001226365566,193.50001029670238"></path><path id="kity_path_55" fill="none" stroke="rgb(115, 161, 191)" stroke-width="1" d="M234.50001226365566,297.5000102967024C242.50001226365566,297.5000102967024,242.50001226365566,219.50001029670238,250.50001226365566,219.50001029670238"></path><path id="kity_path_57" fill="none" stroke="rgb(115, 161, 191)" stroke-width="1" d="M315.50001226365566,219.50001029670238C323.50001226365566,219.50001029670238,323.50001226365566,219.50001029670238,331.50001226365566,219.50001029670238"></path><path id="kity_path_59" fill="none" stroke="rgb(115, 161, 191)" stroke-width="1" d="M234.50001226365566,297.5000102967024C242.50001226365566,297.5000102967024,242.50001226365566,245.50001029670238,250.50001226365566,245.50001029670238"></path><path id="kity_path_61" fill="none" stroke="rgb(115, 161, 191)" stroke-width="1" d="M495.50001226365566,245.50001029670238C503.50001226365566,245.50001029670238,503.50001226365566,245.50001029670238,511.50001226365566,245.50001029670238"></path><path id="kity_path_63" fill="none" stroke="rgb(115, 161, 191)" stroke-width="1" d="M234.50001226365566,297.5000102967024C242.50001226365566,297.5000102967024,242.50001226365566,271.5000102967024,250.50001226365566,271.5000102967024"></path><path id="kity_path_65" fill="none" stroke="rgb(115, 161, 191)" stroke-width="1" d="M411.50001226365566,271.5000102967024C419.50001226365566,271.5000102967024,419.50001226365566,271.5000102967024,427.50001226365566,271.5000102967024"></path><path id="kity_path_67" fill="none" stroke="rgb(115, 161, 191)" stroke-width="1" d="M234.50001226365566,297.5000102967024C242.50001226365566,297.5000102967024,242.50001226365566,297.5000102967024,250.50001226365566,297.5000102967024"></path><path id="kity_path_69" fill="none" stroke="rgb(115, 161, 191)" stroke-width="1" d="M295.50001226365566,297.5000102967024C303.50001226365566,297.5000102967024,303.50001226365566,297.5000102967024,311.50001226365566,297.5000102967024"></path><path id="kity_path_71" fill="none" stroke="rgb(115, 161, 191)" stroke-width="1" d="M234.50001226365566,297.5000102967024C242.50001226365566,297.5000102967024,242.50001226365566,323.5000102967024,250.50001226365566,323.5000102967024"></path><path id="kity_path_73" fill="none" stroke="rgb(115, 161, 191)" stroke-width="1" d="M306.50001226365566,323.5000102967024C314.50001226365566,323.5000102967024,314.50001226365566,323.5000102967024,322.50001226365566,323.5000102967024"></path><path id="kity_path_75" fill="none" stroke="rgb(115, 161, 191)" stroke-width="1" d="M234.50001226365566,297.5000102967024C242.50001226365566,297.5000102967024,242.50001226365566,349.5000102967024,250.50001226365566,349.5000102967024"></path><path id="kity_path_77" fill="none" stroke="rgb(115, 161, 191)" stroke-width="1" d="M277.50001226365566,349.5000102967024C285.50001226365566,349.5000102967024,285.50001226365566,349.5000102967024,293.50001226365566,349.5000102967024"></path><path id="kity_path_79" fill="none" stroke="rgb(115, 161, 191)" stroke-width="1" d="M234.50001226365566,297.5000102967024C242.50001226365566,297.5000102967024,242.50001226365566,375.5000102967024,250.50001226365566,375.5000102967024"></path><path id="kity_path_81" fill="none" stroke="rgb(115, 161, 191)" stroke-width="1" d="M329.50001226365566,375.5000102967024C337.50001226365566,375.5000102967024,337.50001226365566,375.5000102967024,345.50001226365566,375.5000102967024"></path><path id="kity_path_83" fill="none" stroke="rgb(115, 161, 191)" stroke-width="1" d="M234.50001226365566,297.5000102967024C242.50001226365566,297.5000102967024,242.50001226365566,401.5000102967024,250.50001226365566,401.5000102967024"></path><path id="kity_path_85" fill="none" stroke="rgb(115, 161, 191)" stroke-width="1" d="M316.50001226365566,401.5000102967024C324.50001226365566,401.5000102967024,324.50001226365566,401.5000102967024,332.50001226365566,401.5000102967024"></path><path id="kity_path_87" fill="none" stroke="rgb(115, 161, 191)" stroke-width="1" d="M234.50001226365566,297.5000102967024C242.50001226365566,297.5000102967024,242.50001226365566,427.5000102967024,250.50001226365566,427.5000102967024"></path><path id="kity_path_89" fill="none" stroke="rgb(115, 161, 191)" stroke-width="1" d="M337.50001226365566,427.5000102967024C345.50001226365566,427.5000102967024,345.50001226365566,427.5000102967024,353.50001226365566,427.5000102967024"></path><path id="kity_path_91" fill="none" stroke="rgb(115, 161, 191)" stroke-width="1" d="M234.50001226365566,297.5000102967024C242.50001226365566,297.5000102967024,242.50001226365566,453.5000102967024,250.50001226365566,453.5000102967024"></path><path id="kity_path_93" fill="none" stroke="rgb(115, 161, 191)" stroke-width="1" d="M324.50001226365566,453.5000102967024C332.50001226365566,453.5000102967024,332.50001226365566,453.5000102967024,340.50001226365566,453.5000102967024"></path><path id="kity_path_95" fill="none" stroke="rgb(115, 161, 191)" stroke-width="1" d="M58.00001226365566,339.5000102967024A53.5,161,0,0,0,111.50001226365566,500.5000102967024"></path><path id="kity_path_97" fill="none" stroke="rgb(115, 161, 191)" stroke-width="1" d="M227.50001226365566,500.5000102967024C235.50001226365566,500.5000102967024,235.50001226365566,487.5000102967024,243.50001226365566,487.5000102967024"></path><path id="kity_path_99" fill="none" stroke="rgb(115, 161, 191)" stroke-width="1" d="M227.50001226365566,500.5000102967024C235.50001226365566,500.5000102967024,235.50001226365566,513.5000102967024,243.50001226365566,513.5000102967024"></path><path id="kity_path_101" fill="none" stroke="rgb(115, 161, 191)" stroke-width="1" d="M58.00001226365566,339.5000102967024A53.5,221,0,0,0,111.50001226365566,560.5000102967024"></path><path id="kity_path_103" fill="none" stroke="rgb(115, 161, 191)" stroke-width="1" d="M252.50001226365566,560.5000102967024C260.50001226365566,560.5000102967024,260.50001226365566,547.5000102967024,268.50001226365566,547.5000102967024"></path><path id="kity_path_105" fill="none" stroke="rgb(115, 161, 191)" stroke-width="1" d="M252.50001226365566,560.5000102967024C260.50001226365566,560.5000102967024,260.50001226365566,573.5000102967024,268.50001226365566,573.5000102967024"></path><path id="kity_path_107" fill="none" stroke="rgb(115, 161, 191)" stroke-width="1" d="M58.00001226365566,339.5000102967024A53.5,272,0,0,0,111.50001226365566,611.5000102967024"></path><path id="kity_path_109" fill="none" stroke="rgb(115, 161, 191)" stroke-width="1" d="M210.50001226365566,611.5000102967024C218.50001226365566,611.5000102967024,218.50001226365566,611.5000102967024,226.50001226365566,611.5000102967024"></path></g><g id="minder_node1"><path id="node_outline1" fill="rgb(115, 161, 191)" stroke="rgb(57, 80, 96)" d="M25.500012263655663,325.5000102967024h65a5,5,0,0,1,5,5v18a5,5,0,0,1,-5,5h-65a5,5,0,0,1,-5,-5v-18a5,5,0,0,1,5,-5z" stroke-width="3"></path><g id="node_text1" fill="white"><text id="kity_text_22" text-rendering="inherit" font-size="16" dy=".8em" y="329.1000101298094" x="32.50001226365566">canvas</text></g></g><g id="kity_g_12"><path id="kity_path_13" fill="none" stroke="none" d="M32.50001226365566,339.5000102967024h0v0h0z"></path></g><g id="kity_g_14"><path id="kity_path_15" fill="none" stroke="none" d="M32.50001226365566,339.5000102967024h0v0h0z"></path><path id="kity_path_16" fill="none" stroke="none"></path></g><g id="minder_node2"><g id="node_expander5" style="cursor: pointer;"><path id="kity_path_243" fill="white" stroke="gray" d="M112.50001446902752,68.50000222027302A6,6,0,1,1,100.50001446902752,68.50000222027302A6,6,0,1,1,112.50001446902752,68.50000222027302"></path><path id="kity_path_244" fill="none" stroke="gray" d="M102.00001446902752,68.50000222027302L111.00001446902752,68.50000222027302"></path></g><path id="node_outline6" fill="rgb(238, 243, 246)" stroke="rgb(115, 161, 191)" d="M116.50001527369022,55.50000222027302h63a3,3,0,0,1,3,3v20a3,3,0,0,1,-3,3h-63a3,3,0,0,1,-3,-3v-20a3,3,0,0,1,3,-3z" stroke-width="1"></path><g id="node_text6" fill="black"><text id="kity_text_119" text-rendering="inherit" font-size="14" dy=".8em" y="59.400002253055575" x="133.50001527369022">特点</text></g></g><g id="minder_node3"><g id="node_expander1" display="none" style="cursor: pointer;"><path id="kity_path_231" fill="white" stroke="gray" d="M198.50001703202724,29.500001057982445A6,6,0,1,1,186.50001703202724,29.500001057982445A6,6,0,1,1,198.50001703202724,29.500001057982445"></path><path id="kity_path_232" fill="none" stroke="gray"></path></g><path id="node_outline2" fill="none" stroke="none" d="M203.5000173598528,20.500001057982445h82a5,5,0,0,1,5,5v8a5,5,0,0,1,-5,5h-82a5,5,0,0,1,-5,-5v-8a5,5,0,0,1,5,-5z"></path><g id="node_text2" fill="black"><text id="kity_text_111" text-rendering="inherit" font-size="12" dy=".8em" y="21.700001131494844" x="203.5000173598528">html5图形标签</text></g></g><g id="minder_node4"><g id="node_expander2" display="none" style="cursor: pointer;"><path id="kity_path_234" fill="white" stroke="gray" d="M198.50001703202724,55.50000183284283A6,6,0,1,1,186.50001703202724,55.50000183284283A6,6,0,1,1,198.50001703202724,55.50000183284283"></path><path id="kity_path_235" fill="none" stroke="gray"></path></g><path id="node_outline3" fill="none" stroke="none" d="M203.5000173598528,46.50000183284283h172a5,5,0,0,1,5,5v8a5,5,0,0,1,-5,5h-172a5,5,0,0,1,-5,-5v-8a5,5,0,0,1,5,-5z"></path><g id="node_text3" fill="black"><text id="kity_text_113" text-rendering="inherit" font-size="12" dy=".8em" y="47.700001906355226" x="203.5000173598528">只是容器,相当于提供了一个画布</text></g></g><g id="minder_node5"><g id="node_expander3" display="none" style="cursor: pointer;"><path id="kity_path_237" fill="white" stroke="gray" d="M198.50001703202724,81.50000260770321A6,6,0,1,1,186.50001703202724,81.50000260770321A6,6,0,1,1,198.50001703202724,81.50000260770321"></path><path id="kity_path_238" fill="none" stroke="gray"></path></g><path id="node_outline4" fill="none" stroke="none" d="M203.5000173598528,72.50000260770321h109a5,5,0,0,1,5,5v8a5,5,0,0,1,-5,5h-109a5,5,0,0,1,-5,-5v-8a5,5,0,0,1,5,-5z"></path><g id="node_text4" fill="black"><text id="kity_text_115" text-rendering="inherit" font-size="12" dy=".8em" y="73.70000268121561" x="203.5000173598528">需要脚本来绘制图形</text></g></g><g id="minder_node6"><g id="node_expander4" display="none" style="cursor: pointer;"><path id="kity_path_240" fill="white" stroke="gray" d="M198.50001703202724,107.50000338256359A6,6,0,1,1,186.50001703202724,107.50000338256359A6,6,0,1,1,198.50001703202724,107.50000338256359"></path><path id="kity_path_241" fill="none" stroke="gray"></path></g><path id="node_outline5" fill="none" stroke="none" d="M203.5000173598528,98.50000338256359h46a5,5,0,0,1,5,5v8a5,5,0,0,1,-5,5h-46a5,5,0,0,1,-5,-5v-8a5,5,0,0,1,5,-5z"></path><g id="node_text5" fill="black"><text id="kity_text_117" text-rendering="inherit" font-size="12" dy=".8em" y="99.70000345607599" x="203.5000173598528">依赖 api</text></g></g><g id="minder_node7"><g id="node_expander32" style="cursor: pointer;"><path id="kity_path_324" fill="white" stroke="gray" d="M112.50001446902752,297.50000904500484A6,6,0,1,1,100.50001446902752,297.50000904500484A6,6,0,1,1,112.50001446902752,297.50000904500484"></path><path id="kity_path_325" fill="none" stroke="gray" d="M102.00001446902752,297.50000904500484L111.00001446902752,297.50000904500484"></path></g><path id="node_outline33" fill="rgb(238, 243, 246)" stroke="rgb(115, 161, 191)" d="M116.50001527369022,284.50000904500484h115a3,3,0,0,1,3,3v20a3,3,0,0,1,-3,3h-115a3,3,0,0,1,-3,-3v-20a3,3,0,0,1,3,-3z" stroke-width="1"></path><g id="node_text33" fill="black"><text id="kity_text_173" text-rendering="inherit" font-size="14" dy=".8em" y="288.4000090777874" x="133.50001527369022">常用绘图 api</text></g></g><g id="minder_node8"><g id="node_expander7" style="cursor: pointer;"><path id="kity_path_249" fill="white" stroke="gray" d="M250.500018581748,141.50000439584255A6,6,0,1,1,238.500018581748,141.50000439584255A6,6,0,1,1,250.500018581748,141.50000439584255"></path><path id="kity_path_250" fill="none" stroke="gray" d="M240.000018581748,141.50000439584255L249.000018581748,141.50000439584255"></path></g><path id="node_outline8" fill="none" stroke="none" d="M255.50001890957355,132.50000439584255h65a5,5,0,0,1,5,5v8a5,5,0,0,1,-5,5h-65a5,5,0,0,1,-5,-5v-8a5,5,0,0,1,5,-5z"></path><g id="node_text8" fill="black"><text id="kity_text_123" text-rendering="inherit" font-size="12" dy=".8em" y="133.70000446935495" x="255.50001890957355">getContent</text></g></g><g id="minder_node9"><g id="node_expander6" display="none" style="cursor: pointer;"><path id="kity_path_246" fill="white" stroke="gray" d="M341.50002129375935,141.50000439584255A6,6,0,1,1,329.50002129375935,141.50000439584255A6,6,0,1,1,341.50002129375935,141.50000439584255"></path><path id="kity_path_247" fill="none" stroke="gray"></path></g><path id="node_outline7" fill="none" stroke="none" d="M346.5000216215849,132.50000439584255h73a5,5,0,0,1,5,5v8a5,5,0,0,1,-5,5h-73a5,5,0,0,1,-5,-5v-8a5,5,0,0,1,5,-5z"></path><g id="node_text7" fill="black"><text id="kity_text_121" text-rendering="inherit" font-size="12" dy=".8em" y="133.70000446935495" x="346.5000216215849">获得渲染部分</text></g></g><g id="minder_node10"><g id="node_expander9" style="cursor: pointer;"><path id="kity_path_255" fill="white" stroke="gray" d="M250.500018581748,167.50000517070293A6,6,0,1,1,238.500018581748,167.50000517070293A6,6,0,1,1,250.500018581748,167.50000517070293"></path><path id="kity_path_256" fill="none" stroke="gray" d="M240.000018581748,167.50000517070293L249.000018581748,167.50000517070293"></path></g><path id="node_outline10" fill="none" stroke="none" d="M255.50001890957355,158.50000517070293h53a5,5,0,0,1,5,5v8a5,5,0,0,1,-5,5h-53a5,5,0,0,1,-5,-5v-8a5,5,0,0,1,5,-5z"></path><g id="node_text10" fill="black"><text id="kity_text_127" text-rendering="inherit" font-size="12" dy=".8em" y="159.70000524421533" x="255.50001890957355">clearRect</text></g></g><g id="minder_node11"><g id="node_expander8" display="none" style="cursor: pointer;"><path id="kity_path_252" fill="white" stroke="gray" d="M329.5000209361315,167.50000517070293A6,6,0,1,1,317.5000209361315,167.50000517070293A6,6,0,1,1,329.5000209361315,167.50000517070293"></path><path id="kity_path_253" fill="none" stroke="gray"></path></g><path id="node_outline9" fill="none" stroke="none" d="M334.500021263957,158.50000517070293h49a5,5,0,0,1,5,5v8a5,5,0,0,1,-5,5h-49a5,5,0,0,1,-5,-5v-8a5,5,0,0,1,5,-5z"></path><g id="node_text9" fill="black"><text id="kity_text_125" text-rendering="inherit" font-size="12" dy=".8em" y="159.70000524421533" x="334.500021263957">清空区域</text></g></g><g id="minder_node12"><g id="node_expander11" style="cursor: pointer;"><path id="kity_path_261" fill="white" stroke="gray" d="M250.500018581748,193.50000594556332A6,6,0,1,1,238.500018581748,193.50000594556332A6,6,0,1,1,250.500018581748,193.50000594556332"></path><path id="kity_path_262" fill="none" stroke="gray" d="M240.000018581748,193.50000594556332L249.000018581748,193.50000594556332"></path></g><path id="node_outline12" fill="none" stroke="none" d="M255.50001890957355,184.50000594556332h59a5,5,0,0,1,5,5v8a5,5,0,0,1,-5,5h-59a5,5,0,0,1,-5,-5v-8a5,5,0,0,1,5,-5z"></path><g id="node_text12" fill="black"><text id="kity_text_131" text-rendering="inherit" font-size="12" dy=".8em" y="185.70000601907572" x="255.50001890957355">beginPath</text></g></g><g id="minder_node13"><g id="node_expander10" display="none" style="cursor: pointer;"><path id="kity_path_258" fill="white" stroke="gray" d="M335.5000211149454,193.50000594556332A6,6,0,1,1,323.5000211149454,193.50000594556332A6,6,0,1,1,335.5000211149454,193.50000594556332"></path><path id="kity_path_259" fill="none" stroke="gray"></path></g><path id="node_outline11" fill="none" stroke="none" d="M340.50002144277096,184.50000594556332h49a5,5,0,0,1,5,5v8a5,5,0,0,1,-5,5h-49a5,5,0,0,1,-5,-5v-8a5,5,0,0,1,5,-5z"></path><g id="node_text11" fill="black"><text id="kity_text_129" text-rendering="inherit" font-size="12" dy=".8em" y="185.70000601907572" x="340.50002144277096">新建路径</text></g></g><g id="minder_node14"><g id="node_expander13" style="cursor: pointer;"><path id="kity_path_267" fill="white" stroke="gray" d="M250.500018581748,219.5000067204237A6,6,0,1,1,238.500018581748,219.5000067204237A6,6,0,1,1,250.500018581748,219.5000067204237"></path><path id="kity_path_268" fill="none" stroke="gray" d="M240.000018581748,219.5000067204237L249.000018581748,219.5000067204237"></path></g><path id="node_outline14" fill="none" stroke="none" d="M255.50001890957355,210.5000067204237h55a5,5,0,0,1,5,5v8a5,5,0,0,1,-5,5h-55a5,5,0,0,1,-5,-5v-8a5,5,0,0,1,5,-5z"></path><g id="node_text14" fill="black"><text id="kity_text_135" text-rendering="inherit" font-size="12" dy=".8em" y="211.7000067939361" x="255.50001890957355">colsePath</text></g></g><g id="minder_node15"><g id="node_expander12" display="none" style="cursor: pointer;"><path id="kity_path_264" fill="white" stroke="gray" d="M331.5000209957361,219.5000067204237A6,6,0,1,1,319.5000209957361,219.5000067204237A6,6,0,1,1,331.5000209957361,219.5000067204237"></path><path id="kity_path_265" fill="none" stroke="gray"></path></g><path id="node_outline13" fill="none" stroke="none" d="M336.50002132356167,210.5000067204237h49a5,5,0,0,1,5,5v8a5,5,0,0,1,-5,5h-49a5,5,0,0,1,-5,-5v-8a5,5,0,0,1,5,-5z"></path><g id="node_text13" fill="black"><text id="kity_text_133" text-rendering="inherit" font-size="12" dy=".8em" y="211.7000067939361" x="336.50002132356167">闭合路径</text></g></g><g id="minder_node16"><g id="node_expander15" style="cursor: pointer;"><path id="kity_path_273" fill="white" stroke="gray" d="M250.500018581748,245.50000749528408A6,6,0,1,1,238.500018581748,245.50000749528408A6,6,0,1,1,250.500018581748,245.50000749528408"></path><path id="kity_path_274" fill="none" stroke="gray" d="M240.000018581748,245.50000749528408L249.000018581748,245.50000749528408"></path></g><path id="node_outline16" fill="none" stroke="none" d="M255.50001890957355,236.50000749528408h235a5,5,0,0,1,5,5v8a5,5,0,0,1,-5,5h-235a5,5,0,0,1,-5,-5v-8a5,5,0,0,1,5,-5z"></path><g id="node_text16" fill="black"><text id="kity_text_139" text-rendering="inherit" font-size="12" dy=".8em" y="237.70000756879648" x="255.50001890957355">srtoke/strokeRect/strokeStyle/strokeText</text></g></g><g id="minder_node17"><g id="node_expander14" display="none" style="cursor: pointer;"><path id="kity_path_270" fill="white" stroke="gray" d="M511.50002636015415,245.50000749528408A6,6,0,1,1,499.50002636015415,245.50000749528408A6,6,0,1,1,511.50002636015415,245.50000749528408"></path><path id="kity_path_271" fill="none" stroke="gray"></path></g><path id="node_outline15" fill="none" stroke="none" d="M516.5000266879797,236.50000749528408h25a5,5,0,0,1,5,5v8a5,5,0,0,1,-5,5h-25a5,5,0,0,1,-5,-5v-8a5,5,0,0,1,5,-5z"></path><g id="node_text15" fill="black"><text id="kity_text_137" text-rendering="inherit" font-size="12" dy=".8em" y="237.70000756879648" x="516.5000266879797">描边</text></g></g><g id="minder_node18"><g id="node_expander17" style="cursor: pointer;"><path id="kity_path_279" fill="white" stroke="gray" d="M250.500018581748,271.50000827014446A6,6,0,1,1,238.500018581748,271.50000827014446A6,6,0,1,1,250.500018581748,271.50000827014446"></path><path id="kity_path_280" fill="none" stroke="gray" d="M240.000018581748,271.50000827014446L249.000018581748,271.50000827014446"></path></g><path id="node_outline18" fill="none" stroke="none" d="M255.50001890957355,262.50000827014446h151a5,5,0,0,1,5,5v8a5,5,0,0,1,-5,5h-151a5,5,0,0,1,-5,-5v-8a5,5,0,0,1,5,-5z"></path><g id="node_text18" fill="black"><text id="kity_text_143" text-rendering="inherit" font-size="12" dy=".8em" y="263.70000834365686" x="255.50001890957355">fill/fillRect/fillStyle/fillText&#xa0;</text></g></g><g id="minder_node19"><g id="node_expander16" display="none" style="cursor: pointer;"><path id="kity_path_276" fill="white" stroke="gray" d="M427.50002385675907,271.50000827014446A6,6,0,1,1,415.50002385675907,271.50000827014446A6,6,0,1,1,427.50002385675907,271.50000827014446"></path><path id="kity_path_277" fill="none" stroke="gray"></path></g><path id="node_outline17" fill="none" stroke="none" d="M432.5000241845846,262.50000827014446h25a5,5,0,0,1,5,5v8a5,5,0,0,1,-5,5h-25a5,5,0,0,1,-5,-5v-8a5,5,0,0,1,5,-5z"></path><g id="node_text17" fill="black"><text id="kity_text_141" text-rendering="inherit" font-size="12" dy=".8em" y="263.70000834365686" x="432.5000241845846">填充</text></g></g><g id="minder_node20"><g id="node_expander19" style="cursor: pointer;"><path id="kity_path_285" fill="white" stroke="gray" d="M250.500018581748,297.50000904500484A6,6,0,1,1,238.500018581748,297.50000904500484A6,6,0,1,1,250.500018581748,297.50000904500484"></path><path id="kity_path_286" fill="none" stroke="gray" d="M240.000018581748,297.50000904500484L249.000018581748,297.50000904500484"></path></g><path id="node_outline20" fill="none" stroke="none" d="M255.50001890957355,288.50000904500484h35a5,5,0,0,1,5,5v8a5,5,0,0,1,-5,5h-35a5,5,0,0,1,-5,-5v-8a5,5,0,0,1,5,-5z"></path><g id="node_text20" fill="black"><text id="kity_text_147" text-rendering="inherit" font-size="12" dy=".8em" y="289.70000911851724" x="255.50001890957355">lineTo</text></g></g><g id="minder_node21"><g id="node_expander18" display="none" style="cursor: pointer;"><path id="kity_path_282" fill="white" stroke="gray" d="M311.5000203996897,297.50000904500484A6,6,0,1,1,299.5000203996897,297.50000904500484A6,6,0,1,1,311.5000203996897,297.50000904500484"></path><path id="kity_path_283" fill="none" stroke="gray"></path></g><path id="node_outline19" fill="none" stroke="none" d="M316.5000207275152,288.50000904500484h36a5,5,0,0,1,5,5v8a5,5,0,0,1,-5,5h-36a5,5,0,0,1,-5,-5v-8a5,5,0,0,1,5,-5z"></path><g id="node_text19" fill="black"><text id="kity_text_145" text-rendering="inherit" font-size="12" dy=".8em" y="289.70000911851724" x="316.5000207275152">向绘制</text></g></g><g id="minder_node22"><g id="node_expander21" style="cursor: pointer;"><path id="kity_path_291" fill="white" stroke="gray" d="M250.500018581748,323.5000098198652A6,6,0,1,1,238.500018581748,323.5000098198652A6,6,0,1,1,250.500018581748,323.5000098198652"></path><path id="kity_path_292" fill="none" stroke="gray" d="M240.000018581748,323.5000098198652L249.000018581748,323.5000098198652"></path></g><path id="node_outline22" fill="none" stroke="none" d="M255.50001890957355,314.5000098198652h46a5,5,0,0,1,5,5v8a5,5,0,0,1,-5,5h-46a5,5,0,0,1,-5,-5v-8a5,5,0,0,1,5,-5z"></path><g id="node_text22" fill="black"><text id="kity_text_151" text-rendering="inherit" font-size="12" dy=".8em" y="315.7000098933776" x="255.50001890957355">moveTo</text></g></g><g id="minder_node23"><g id="node_expander20" display="none" style="cursor: pointer;"><path id="kity_path_288" fill="white" stroke="gray" d="M322.5000207275152,323.5000098198652A6,6,0,1,1,310.5000207275152,323.5000098198652A6,6,0,1,1,322.5000207275152,323.5000098198652"></path><path id="kity_path_289" fill="none" stroke="gray"></path></g><path id="node_outline21" fill="none" stroke="none" d="M327.50002105534077,314.5000098198652h49a5,5,0,0,1,5,5v8a5,5,0,0,1,-5,5h-49a5,5,0,0,1,-5,-5v-8a5,5,0,0,1,5,-5z"></path><g id="node_text21" fill="black"><text id="kity_text_149" text-rendering="inherit" font-size="12" dy=".8em" y="315.7000098933776" x="327.50002105534077">提笔移动</text></g></g><g id="minder_node24"><g id="node_expander23" style="cursor: pointer;"><path id="kity_path_297" fill="white" stroke="gray" d="M250.500018581748,349.5000105947256A6,6,0,1,1,238.500018581748,349.5000105947256A6,6,0,1,1,250.500018581748,349.5000105947256"></path><path id="kity_path_298" fill="none" stroke="gray" d="M240.000018581748,349.5000105947256L249.000018581748,349.5000105947256"></path></g><path id="node_outline24" fill="none" stroke="none" d="M255.50001890957355,340.5000105947256h17a5,5,0,0,1,5,5v8a5,5,0,0,1,-5,5h-17a5,5,0,0,1,-5,-5v-8a5,5,0,0,1,5,-5z"></path><g id="node_text24" fill="black"><text id="kity_text_155" text-rendering="inherit" font-size="12" dy=".8em" y="341.700010668238" x="255.50001890957355">arc</text></g></g><g id="minder_node25"><g id="node_expander22" display="none" style="cursor: pointer;"><path id="kity_path_294" fill="white" stroke="gray" d="M293.50001986324787,349.5000105947256A6,6,0,1,1,281.50001986324787,349.5000105947256A6,6,0,1,1,293.50001986324787,349.5000105947256"></path><path id="kity_path_295" fill="none" stroke="gray"></path></g><path id="node_outline23" fill="none" stroke="none" d="M298.5000201910734,340.5000105947256h42a5,5,0,0,1,5,5v8a5,5,0,0,1,-5,5h-42a5,5,0,0,1,-5,-5v-8a5,5,0,0,1,5,-5z"></path><g id="node_text23" fill="black"><text id="kity_text_153" text-rendering="inherit" font-size="12" dy=".8em" y="341.700010668238" x="298.5000201910734">圆/弧线</text></g></g><g id="minder_node26"><g id="node_expander25" style="cursor: pointer;"><path id="kity_path_303" fill="white" stroke="gray" d="M250.500018581748,375.500011369586A6,6,0,1,1,238.500018581748,375.500011369586A6,6,0,1,1,250.500018581748,375.500011369586"></path><path id="kity_path_304" fill="none" stroke="gray" d="M240.000018581748,375.500011369586L249.000018581748,375.500011369586"></path></g><path id="node_outline26" fill="none" stroke="none" d="M255.50001890957355,366.500011369586h69a5,5,0,0,1,5,5v8a5,5,0,0,1,-5,5h-69a5,5,0,0,1,-5,-5v-8a5,5,0,0,1,5,-5z"></path><g id="node_text26" fill="black"><text id="kity_text_159" text-rendering="inherit" font-size="12" dy=".8em" y="367.7000114430984" x="255.50001890957355">globalAlpha</text></g></g><g id="minder_node27"><g id="node_expander24" display="none" style="cursor: pointer;"><path id="kity_path_300" fill="white" stroke="gray" d="M345.50002141296864,375.500011369586A6,6,0,1,1,333.50002141296864,375.500011369586A6,6,0,1,1,345.50002141296864,375.500011369586"></path><path id="kity_path_301" fill="none" stroke="gray"></path></g><path id="node_outline25" fill="none" stroke="none" d="M350.5000217407942,366.500011369586h37a5,5,0,0,1,5,5v8a5,5,0,0,1,-5,5h-37a5,5,0,0,1,-5,-5v-8a5,5,0,0,1,5,-5z"></path><g id="node_text25" fill="black"><text id="kity_text_157" text-rendering="inherit" font-size="12" dy=".8em" y="367.7000114430984" x="350.5000217407942">透明度</text></g></g><g id="minder_node28"><g id="node_expander27" style="cursor: pointer;"><path id="kity_path_309" fill="white" stroke="gray" d="M250.500018581748,401.5000121444464A6,6,0,1,1,238.500018581748,401.5000121444464A6,6,0,1,1,250.500018581748,401.5000121444464"></path><path id="kity_path_310" fill="none" stroke="gray" d="M240.000018581748,401.5000121444464L249.000018581748,401.5000121444464"></path></g><path id="node_outline28" fill="none" stroke="none" d="M255.50001890957355,392.5000121444464h56a5,5,0,0,1,5,5v8a5,5,0,0,1,-5,5h-56a5,5,0,0,1,-5,-5v-8a5,5,0,0,1,5,-5z"></path><g id="node_text28" fill="black"><text id="kity_text_163" text-rendering="inherit" font-size="12" dy=".8em" y="393.7000122179588" x="255.50001890957355">lineWidth</text></g></g><g id="minder_node29"><g id="node_expander26" display="none" style="cursor: pointer;"><path id="kity_path_306" fill="white" stroke="gray" d="M332.50002102553844,401.5000121444464A6,6,0,1,1,320.50002102553844,401.5000121444464A6,6,0,1,1,332.50002102553844,401.5000121444464"></path><path id="kity_path_307" fill="none" stroke="gray"></path></g><path id="node_outline27" fill="none" stroke="none" d="M337.500021353364,392.5000121444464h36a5,5,0,0,1,5,5v8a5,5,0,0,1,-5,5h-36a5,5,0,0,1,-5,-5v-8a5,5,0,0,1,5,-5z"></path><g id="node_text27" fill="black"><text id="kity_text_161" text-rendering="inherit" font-size="12" dy=".8em" y="393.7000122179588" x="337.500021353364">线宽度</text></g></g><g id="minder_node30"><g id="node_expander29" style="cursor: pointer;"><path id="kity_path_315" fill="white" stroke="gray" d="M250.500018581748,427.50001291930676A6,6,0,1,1,238.500018581748,427.50001291930676A6,6,0,1,1,250.500018581748,427.50001291930676"></path><path id="kity_path_316" fill="none" stroke="gray" d="M240.000018581748,427.50001291930676L249.000018581748,427.50001291930676"></path></g><path id="node_outline30" fill="none" stroke="none" d="M255.50001890957355,418.50001291930676h77a5,5,0,0,1,5,5v8a5,5,0,0,1,-5,5h-77a5,5,0,0,1,-5,-5v-8a5,5,0,0,1,5,-5z"></path><g id="node_text30" fill="black"><text id="kity_text_167" text-rendering="inherit" font-size="12" dy=".8em" y="419.70001299281915" x="255.50001890957355">createPattern</text></g></g><g id="minder_node31"><g id="node_expander28" display="none" style="cursor: pointer;"><path id="kity_path_312" fill="white" stroke="gray" d="M353.5000216513872,427.50001291930676A6,6,0,1,1,341.5000216513872,427.50001291930676A6,6,0,1,1,353.5000216513872,427.50001291930676"></path><path id="kity_path_313" fill="none" stroke="gray"></path></g><path id="node_outline29" fill="none" stroke="none" d="M358.50002197921276,418.50001291930676h49a5,5,0,0,1,5,5v8a5,5,0,0,1,-5,5h-49a5,5,0,0,1,-5,-5v-8a5,5,0,0,1,5,-5z"></path><g id="node_text29" fill="black"><text id="kity_text_165" text-rendering="inherit" font-size="12" dy=".8em" y="419.70001299281915" x="358.50002197921276">填充图案</text></g></g><g id="minder_node32"><g id="node_expander31" style="cursor: pointer;"><path id="kity_path_321" fill="white" stroke="gray" d="M250.500018581748,453.50001369416714A6,6,0,1,1,238.500018581748,453.50001369416714A6,6,0,1,1,250.500018581748,453.50001369416714"></path><path id="kity_path_322" fill="none" stroke="gray" d="M240.000018581748,453.50001369416714L249.000018581748,453.50001369416714"></path></g><path id="node_outline32" fill="none" stroke="none" d="M255.50001890957355,444.50001369416714h64a5,5,0,0,1,5,5v8a5,5,0,0,1,-5,5h-64a5,5,0,0,1,-5,-5v-8a5,5,0,0,1,5,-5z"></path><g id="node_text32" fill="black"><text id="kity_text_171" text-rendering="inherit" font-size="12" dy=".8em" y="445.70001376767954" x="255.50001890957355">drawImage</text></g></g><g id="minder_node33"><g id="node_expander30" display="none" style="cursor: pointer;"><path id="kity_path_318" fill="white" stroke="gray" d="M340.500021263957,453.50001369416714A6,6,0,1,1,328.500021263957,453.50001369416714A6,6,0,1,1,340.500021263957,453.50001369416714"></path><path id="kity_path_319" fill="none" stroke="gray"></path></g><path id="node_outline31" fill="none" stroke="none" d="M345.50002159178257,444.50001369416714h49a5,5,0,0,1,5,5v8a5,5,0,0,1,-5,5h-49a5,5,0,0,1,-5,-5v-8a5,5,0,0,1,5,-5z"></path><g id="node_text31" fill="black"><text id="kity_text_169" text-rendering="inherit" font-size="12" dy=".8em" y="445.70001376767954" x="345.50002159178257">绘制图片</text></g></g><g id="minder_node34"><g id="node_expander35" style="cursor: pointer;"><path id="kity_path_333" fill="white" stroke="gray" d="M112.50001446902752,500.5000150948763A6,6,0,1,1,100.50001446902752,500.5000150948763A6,6,0,1,1,112.50001446902752,500.5000150948763"></path><path id="kity_path_334" fill="none" stroke="gray" d="M102.00001446902752,500.5000150948763L111.00001446902752,500.5000150948763"></path></g><path id="node_outline36" fill="rgb(238, 243, 246)" stroke="rgb(115, 161, 191)" d="M116.50001527369022,487.5000150948763h108a3,3,0,0,1,3,3v20a3,3,0,0,1,-3,3h-108a3,3,0,0,1,-3,-3v-20a3,3,0,0,1,3,-3z" stroke-width="1"></path><g id="node_text36" fill="black"><text id="kity_text_179" text-rendering="inherit" font-size="14" dy=".8em" y="491.40001512765883" x="133.50001527369022">与 SVG区别</text></g></g><g id="minder_node35"><g id="node_expander33" display="none" style="cursor: pointer;"><path id="kity_path_327" fill="white" stroke="gray" d="M243.50001837313175,487.5000147074461A6,6,0,1,1,231.50001837313175,487.5000147074461A6,6,0,1,1,243.50001837313175,487.5000147074461"></path><path id="kity_path_328" fill="none" stroke="gray"></path></g><path id="node_outline34" fill="none" stroke="none" d="M248.5000187009573,478.5000147074461h115a5,5,0,0,1,5,5v8a5,5,0,0,1,-5,5h-115a5,5,0,0,1,-5,-5v-8a5,5,0,0,1,5,-5z"></path><g id="node_text34" fill="black"><text id="kity_text_175" text-rendering="inherit" font-size="12" dy=".8em" y="479.7000147809585" x="248.5000187009573">canvas 依赖 api 绘图</text></g></g><g id="minder_node36"><g id="node_expander34" display="none" style="cursor: pointer;"><path id="kity_path_330" fill="white" stroke="gray" d="M243.50001837313175,513.5000154823065A6,6,0,1,1,231.50001837313175,513.5000154823065A6,6,0,1,1,243.50001837313175,513.5000154823065"></path><path id="kity_path_331" fill="none" stroke="gray"></path></g><path id="node_outline35" fill="none" stroke="none" d="M248.5000187009573,504.5000154823065h147a5,5,0,0,1,5,5v8a5,5,0,0,1,-5,5h-147a5,5,0,0,1,-5,-5v-8a5,5,0,0,1,5,-5z"></path><g id="node_text35" fill="black"><text id="kity_text_177" text-rendering="inherit" font-size="12" dy=".8em" y="505.7000155558189" x="248.5000187009573">svg 依赖 xml 文档描述绘图</text></g></g><g id="minder_node37"><g id="node_expander38" style="cursor: pointer;"><path id="kity_path_342" fill="white" stroke="gray" d="M112.50001446902752,560.5000168830156A6,6,0,1,1,100.50001446902752,560.5000168830156A6,6,0,1,1,112.50001446902752,560.5000168830156"></path><path id="kity_path_343" fill="none" stroke="gray" d="M102.00001446902752,560.5000168830156L111.00001446902752,560.5000168830156"></path></g><path id="node_outline39" fill="rgb(238, 243, 246)" stroke="rgb(115, 161, 191)" d="M116.50001527369022,547.5000168830156h133a3,3,0,0,1,3,3v20a3,3,0,0,1,-3,3h-133a3,3,0,0,1,-3,-3v-20a3,3,0,0,1,3,-3z" stroke-width="1"></path><g id="node_text39" fill="black"><text id="kity_text_185" text-rendering="inherit" font-size="14" dy=".8em" y="551.4000169157982" x="133.50001527369022">动画的基本原理</text></g></g><g id="minder_node38"><g id="node_expander36" display="none" style="cursor: pointer;"><path id="kity_path_336" fill="white" stroke="gray" d="M268.5000191181898,547.5000164955854A6,6,0,1,1,256.5000191181898,547.5000164955854A6,6,0,1,1,268.5000191181898,547.5000164955854"></path><path id="kity_path_337" fill="none" stroke="gray"></path></g><path id="node_outline37" fill="none" stroke="none" d="M273.50001944601536,538.5000164955854h49a5,5,0,0,1,5,5v8a5,5,0,0,1,-5,5h-49a5,5,0,0,1,-5,-5v-8a5,5,0,0,1,5,-5z"></path><g id="node_text37" fill="black"><text id="kity_text_181" text-rendering="inherit" font-size="12" dy=".8em" y="539.7000165690979" x="273.50001944601536">清空画布</text></g></g><g id="minder_node39"><g id="node_expander37" display="none" style="cursor: pointer;"><path id="kity_path_339" fill="white" stroke="gray" d="M268.5000191181898,573.5000172704458A6,6,0,1,1,256.5000191181898,573.5000172704458A6,6,0,1,1,268.5000191181898,573.5000172704458"></path><path id="kity_path_340" fill="none" stroke="gray"></path></g><path id="node_outline38" fill="none" stroke="none" d="M273.50001944601536,564.5000172704458h49a5,5,0,0,1,5,5v8a5,5,0,0,1,-5,5h-49a5,5,0,0,1,-5,-5v-8a5,5,0,0,1,5,-5z"></path><g id="node_text38" fill="black"><text id="kity_text_183" text-rendering="inherit" font-size="12" dy=".8em" y="565.7000173439583" x="273.50001944601536">绘制画布</text></g></g><g id="minder_node40"><g id="node_expander40" style="cursor: pointer;"><path id="kity_path_348" fill="white" stroke="gray" d="M112.50001446902752,611.5000184029341A6,6,0,1,1,100.50001446902752,611.5000184029341A6,6,0,1,1,112.50001446902752,611.5000184029341"></path><path id="kity_path_349" fill="none" stroke="gray" d="M102.00001446902752,611.5000184029341L111.00001446902752,611.5000184029341"></path></g><path id="node_outline41" fill="rgb(238, 243, 246)" stroke="rgb(115, 161, 191)" d="M116.50001527369022,598.5000184029341h91a3,3,0,0,1,3,3v20a3,3,0,0,1,-3,3h-91a3,3,0,0,1,-3,-3v-20a3,3,0,0,1,3,-3z" stroke-width="1"></path><g id="node_text41" fill="black"><text id="kity_text_189" text-rendering="inherit" font-size="14" dy=".8em" y="602.4000184357167" x="133.50001527369022">画布保存</text></g></g><g id="minder_node41"><g id="node_expander39" display="none" style="cursor: pointer;"><path id="kity_path_345" fill="white" stroke="gray" d="M226.50001786649227,611.5000184029341A6,6,0,1,1,214.50001786649227,611.5000184029341A6,6,0,1,1,226.50001786649227,611.5000184029341"></path><path id="kity_path_346" fill="none" stroke="gray"></path></g><path id="node_outline40" fill="none" stroke="none" d="M231.50001819431782,602.5000184029341h105a5,5,0,0,1,5,5v8a5,5,0,0,1,-5,5h-105a5,5,0,0,1,-5,-5v-8a5,5,0,0,1,5,-5z"></path><g id="node_text40" fill="black"><text id="kity_text_187" text-rendering="inherit" font-size="12" dy=".8em" y="603.7000184764465" x="231.50001819431782">convas.toDataURL</text></g></g></g></g></svg>